<?xml version="1.0" standalone="no"?>
<!DOCTYPE svg PUBLIC "-//W3C//DTD SVG 20010904//EN"
 "http://www.w3.org/TR/2001/REC-SVG-20010904/DTD/svg10.dtd">
<svg version="1.0" xmlns="http://www.w3.org/2000/svg"
 width="700.000000pt" height="700.000000pt" viewBox="0 0 700.000000 700.000000"
 preserveAspectRatio="xMidYMid meet">
<metadata>
Created by potrace 1.11, written by Peter Selinger 2001-2013
</metadata>
<g transform="translate(0.000000,700.000000) scale(0.100000,-0.100000)"
fill="#000000" stroke="none">
<path d="M3298 6996 c-1 -2 -41 -6 -88 -10 -403 -28 -845 -148 -1227 -332
-480 -233 -896 -566 -1227 -984 -399 -503 -646 -1095 -731 -1750 -21 -164 -28
-573 -12 -730 12 -109 27 -226 41 -295 2 -11 6 -36 10 -55 162 -894 715 -1729
1486 -2244 387 -259 789 -429 1235 -522 89 -18 186 -35 238 -40 34 -3 65 -8
68 -9 15 -10 228 -20 414 -20 188 0 323 7 410 20 17 2 48 7 70 9 385 47 854
204 1219 408 162 91 463 299 552 382 7 6 50 45 96 86 46 41 92 85 101 97 17
22 14 26 -386 426 l-404 404 -54 -49 c-268 -244 -548 -410 -876 -518 -81 -26
-175 -53 -208 -60 -157 -29 -226 -41 -295 -47 -98 -10 -376 -9 -465 1 -278 30
-536 103 -782 222 -111 53 -303 166 -354 208 -14 11 -41 32 -59 46 -214 158
-429 399 -577 645 -144 240 -255 526 -297 765 -2 14 -7 43 -11 65 -4 22 -9 49
-11 59 -10 55 -19 206 -19 321 0 217 21 388 70 580 8 33 17 68 19 77 3 9 19
58 37 110 223 651 720 1171 1359 1421 105 41 233 83 282 92 11 2 27 6 36 9 17
5 24 7 122 25 144 27 232 35 405 35 205 1 318 -10 510 -49 217 -44 522 -163
700 -274 62 -38 179 -115 185 -121 3 -3 30 -24 60 -46 51 -38 108 -87 183
-156 16 -16 33 -28 38 -28 9 0 809 796 809 804 0 10 -179 174 -263 241 -21 17
-50 40 -65 53 -15 12 -61 46 -102 74 -41 29 -77 54 -80 57 -6 7 -15 13 -175
109 -348 209 -803 379 -1162 436 -33 5 -116 19 -123 21 -3 1 -41 5 -85 10 -44
4 -89 10 -100 12 -26 4 -512 12 -517 9z"/>
<path d="M3504 4071 c-2 -2 -4 -261 -4 -575 l0 -571 1748 0 1747 0 3 575 2
575 -1746 0 c-960 0 -1747 -2 -1750 -4z"/>
</g>
</svg>
